HIERARCHY
ROOT Hip
{
	OFFSET 0 1.131 0.0052
	CHANNELS 6 Xposition Yposition Zposition Xrotation Yrotation Zrotation
	JOINT Abdomen
	{
		OFFSET 0 -0.047353 -0.05
		CHANNELS 3 Xrotation Zrotation Yrotation
		JOINT Chest
		{
			OFFSET 0 0.132153 0.007439
			CHANNELS 3 Xrotation Zrotation Yrotation
			JOINT Neck
			{
				OFFSET 0 0.3078 0.006161
				CHANNELS 3 Xrotation Zrotation Yrotation
				JOINT Head_comp
				{
					OFFSET 0 0.0884 0.013
					CHANNELS 3 Xrotation Yrotation Zrotation
					End Site
					{
						OFFSET -0 0.156 0.0624
					}
				}
			}
			JOINT Left_Collar
			{
				OFFSET 0.02282 0.250342 0.017193
				CHANNELS 2 Yrotation Zrotation
				JOINT Left_Shoulder
				{
					OFFSET 0.15421 0 0
					CHANNELS 3 Xrotation Yrotation Zrotation
					JOINT Left_Forearm
					{
						OFFSET 0.265212 0 0
						CHANNELS 2 Yrotation Xrotation
						JOINT Left_Hand
						{
							OFFSET 0.27571 0 0
							CHANNELS 2 Zrotation Yrotation
							JOINT L1ProxPhalanx
							{
								OFFSET 0.014142 0.001733 0.014142
								CHANNELS 3 Yrotation Zrotation Xrotation
								JOINT L1MidPhalanx
								{
									OFFSET 0.04 0 0
									CHANNELS 1 Zrotation
									JOINT L1DistPhalanx
									{
										OFFSET 0.035 0 0
										CHANNELS 1 Zrotation
										End Site
										{
											OFFSET 0.029 -0 -0
										}
									}
								}
							}
							JOINT L2ProxPhalanx
							{
								OFFSET 0.0821037 0.001578 0.0219996
								CHANNELS 2 Yrotation Zrotation
								JOINT L2MidPhalanx
								{
									OFFSET 0.04 0 0
									CHANNELS 1 Zrotation
									JOINT L2DistPhalanx
									{
										OFFSET 0.028 0 0
										CHANNELS 1 Zrotation
										End Site
										{
											OFFSET 0.02 -0 -0
										}
									}
								}
							}
							JOINT L3ProxPhalanx
							{
								OFFSET 0.083 0 0
								CHANNELS 2 Yrotation Zrotation
								JOINT L3MidPhalanx
								{
									OFFSET 0.053 0 0
									CHANNELS 1 Zrotation
									JOINT L3DistPhalanx
									{
										OFFSET 0.03 0 0
										CHANNELS 1 Zrotation
										End Site
										{
											OFFSET 0.023 -0 -0
										}
									}
								}
							}
							JOINT L4ProxPhalanx
							{
								OFFSET 0.077274 -0.000761 -0.0207055
								CHANNELS 2 Yrotation Zrotation
								JOINT L4MidPhalanx
								{
									OFFSET 0.05 0 0
									CHANNELS 1 Zrotation
									JOINT L4DistPhalanx
									{
										OFFSET 0.03 0 0
										CHANNELS 1 Zrotation
										End Site
										{
											OFFSET 0.023 -0 -0
										}
									}
								}
							}
							JOINT L5ProxPhalanx
							{
								OFFSET 0.0675499 -0.001644 -0.039
								CHANNELS 2 Yrotation Zrotation
								JOINT L5MidPhalanx
								{
									OFFSET 0.04 0 0
									CHANNELS 1 Zrotation
									JOINT L5DistPhalanx
									{
										OFFSET 0.021 0 0
										CHANNELS 1 Zrotation
										End Site
										{
											OFFSET 0.022 -0 -0
										}
									}
								}
							}
						}
					}
				}
			}
			JOINT Right_Collar
			{
				OFFSET -0.02282 0.250342 0.017193
				CHANNELS 2 Yrotation Zrotation
				JOINT Right_Shoulder
				{
					OFFSET -0.15421 0 0
					CHANNELS 3 Xrotation Yrotation Zrotation
					JOINT Right_Forearm
					{
						OFFSET -0.265212 0 0
						CHANNELS 2 Yrotation Xrotation
						JOINT Right_Hand
						{
							OFFSET -0.27571 3e-006 0
							CHANNELS 2 Zrotation Yrotation
							JOINT R1ProxPhalanx
							{
								OFFSET -0.014142 0.001733 0.014142
								CHANNELS 3 Yrotation Zrotation Xrotation
								JOINT R1MidPhalanx
								{
									OFFSET -0.04 0 0
									CHANNELS 1 Zrotation
									JOINT R1DistPhalanx
									{
										OFFSET -0.035 0 0
										CHANNELS 1 Zrotation
										End Site
										{
											OFFSET -0.029 -0 -0
										}
									}
								}
							}
							JOINT R2ProxPhalanx
							{
								OFFSET -0.0821037 0.001578 0.0219996
								CHANNELS 2 Yrotation Zrotation
								JOINT R2MidPhalanx
								{
									OFFSET -0.04 0 0
									CHANNELS 1 Zrotation
									JOINT R2DistPhalanx
									{
										OFFSET -0.028 0 0
										CHANNELS 1 Zrotation
										End Site
										{
											OFFSET -0.02 -0 -0
										}
									}
								}
							}
							JOINT R3ProxPhalanx
							{
								OFFSET -0.083 0 0
								CHANNELS 2 Yrotation Zrotation
								JOINT R3MidPhalanx
								{
									OFFSET -0.053 0 0
									CHANNELS 1 Zrotation
									JOINT R3DistPhalanx
									{
										OFFSET -0.03 0 0
										CHANNELS 1 Zrotation
										End Site
										{
											OFFSET -0.023 -0 -0
										}
									}
								}
							}
							JOINT R4ProxPhalanx
							{
								OFFSET -0.077274 -0.000761 -0.0207055
								CHANNELS 2 Yrotation Zrotation
								JOINT R4MidPhalanx
								{
									OFFSET -0.05 0 0
									CHANNELS 1 Zrotation
									JOINT R4DistPhalanx
									{
										OFFSET -0.03 0 0
										CHANNELS 1 Zrotation
										End Site
										{
											OFFSET -0.023 -0 -0
										}
									}
								}
							}
							JOINT R5ProxPhalanx
							{
								OFFSET -0.0675499 -0.001644 -0.039
								CHANNELS 2 Yrotation Zrotation
								JOINT R5MidPhalanx
								{
									OFFSET -0.04 0 0
									CHANNELS 1 Zrotation
									JOINT R5DistPhalanx
									{
										OFFSET -0.021 0 0
										CHANNELS 1 Zrotation
										End Site
										{
											OFFSET -0.022 -0 -0
										}
									}
								}
							}
						}
					}
				}
			}
		}
	}
	JOINT Left_Thigh
	{
		OFFSET 0.1118 -0.1612 -0.0442
		CHANNELS 3 Xrotation Zrotation Yrotation
		JOINT Left_Shin
		{
			OFFSET 0 -0.477856 0
			CHANNELS 1 Xrotation
			JOINT Left_Foot
			{
				OFFSET 0 -0.431952 0
				CHANNELS 2 Xrotation Zrotation
				JOINT Left_Toe
				{
					OFFSET 0 -0.0442 0.119
					CHANNELS 1 Xrotation
					End Site
					{
						OFFSET -0 -0 0.07
					}
				}
			}
		}
	}
	JOINT Right_Thigh
	{
		OFFSET -0.1118 -0.1612 -0.0442
		CHANNELS 3 Xrotation Zrotation Yrotation
		JOINT Right_Shin
		{
			OFFSET 0 -0.477856 0
			CHANNELS 1 Xrotation
			JOINT Right_Foot
			{
				OFFSET 0 -0.431952 0
				CHANNELS 2 Xrotation Zrotation
				JOINT Right_Toe
				{
					OFFSET 0 -0.0442 0.119
					CHANNELS 1 Xrotation
					End Site
					{
						OFFSET -0 -0 0.07
					}
				}
			}
		}
	}
}
MOTION
Frames: 16
Frame Time: 0.009975
-0.102466 -0.0602488 0.0584953 -4.16841e-013 1.09494e-007 -5.10842e-006 0 0 0 0 0 0 0 0 0 0 0 0 0 0 -0 0 -0 0 0 0 0 -40.5316 -43.5896 103.283 -7.10789 -4.81548 2.69559 -7.40342 -2.98992 -6.72733 5.89092 0.508958 -5.4973 -5.3917 11.1257 1.19015 -12.1062 -9.35422 19.4153 3.33565 -41.2194 -1.46018 0 0 -0 0 -0 0 0 0 0 37.9386 28.008 73.698 26.2405 28.4472 13.118 18.2167 29.0248 19.6359 0 22.4358 32.6146 28.1246 -8.63175 30.7051 32.2053 23.7634 -7.83088 26.7354 35.1526 30.0193 1.21648 -0.587845 -0.0124827 0.0240216 -1.24044 0.587983 0 1.22789 -0.587843 -0.0125997 0 -1.22782 0.587983 0 
-0.102466 -0.0602488 0.0584953 -4.16841e-013 1.09494e-007 -5.10842e-006 0 0 0 0 0 0 0 0 0 0 0 0 0 0 -0 0 -0 0 0 0 0 -40.5316 -43.5896 103.283 -7.10789 -4.81548 2.69559 -7.40342 -2.98992 -6.72733 5.89092 0.508958 -5.4973 -5.3917 11.1257 1.19015 -12.1062 -9.35422 19.4153 3.33565 -41.2194 -1.46018 0 0 -0 0 -0 0 0 0 0 37.9386 28.008 73.698 26.2405 28.4472 13.118 18.2167 29.0248 19.6359 0 22.4358 32.6146 28.1246 -8.63175 30.7051 32.2053 23.7634 -7.83088 26.7354 35.1526 30.0193 1.21648 -0.587845 -0.0124827 0.0240216 -1.24044 0.587983 0 1.22789 -0.587843 -0.0125997 0 -1.22782 0.587983 0 
-0.101418 -0.0602342 0.0571827 1.91442e-013 1.02124e-007 -5.08309e-006 0 -0 0 0 -0 0 0 -0 0 -0.710577 0.291136 -9.07207e-006 9.58636 -22.9199 12.0262 -9.56037 -28.0225 -121.448 -5.6352 -4.8422 -1.73423 -40.6385 -43.5109 103.135 -7.24735 -4.8914 2.67736 -7.51636 -3.17497 -6.76869 5.86226 0.346656 -5.66981 -5.45475 11.0789 1.02468 -12.2457 -9.39745 19.3495 3.19963 -41.1833 -1.55288 -9.58636 22.9199 12.0262 9.56037 28.0225 121.448 -5.6352 4.8422 1.73423 40.6385 43.5109 103.135 7.24735 4.8914 -2.67736 7.51636 3.17497 6.76869 -5.86226 -0.346656 5.66981 5.45475 -11.0789 -1.02468 12.2457 9.39745 -19.3495 -3.19963 41.1833 1.55288 1.13387 -0.653852 -0.0129736 0.0239015 -1.1577 0.653986 0 1.14522 -0.65385 -0.0131034 1.69901e-006 -1.14514 0.653986 0 
-0.10135 -0.0602176 0.0563535 1.92427e-013 1.02637e-007 -5.10863e-006 0 -0 0 0 -0 0 0 -0 0 -0.713686 0.291352 -3.79411e-011 9.63388 -23.0348 12.1002 -9.56296 -27.6892 -122.064 -5.65194 -4.86653 -1.74294 -40.5316 -43.5896 103.283 -7.10789 -4.81548 2.69559 -7.40342 -2.98992 -6.72733 5.89092 0.508958 -5.4973 -5.3917 11.1257 1.19015 -12.1062 -9.35422 19.4153 3.33565 -41.2194 -1.46018 -9.63388 23.0348 12.1002 9.56296 27.6892 122.064 -5.65194 4.86653 1.74294 40.5316 43.5896 103.283 7.10789 4.81548 -2.69559 7.40342 2.98992 6.72733 -5.89092 -0.508958 5.4973 5.3917 -11.1257 -1.19015 12.1062 9.35422 -19.4153 -3.33565 41.2194 1.46018 1.08158 -0.658103 -0.0124244 0.0240216 -1.10553 0.658225 0 1.09298 -0.6581 -0.0125554 1.70755e-006 -1.09292 0.658225 0 
-0.10135 -0.0602173 0.0563386 5.51995e-013 9.74278e-008 -5.10873e-006 0 -0 0 0 -0 0 0 -0 0 -0.713659 0.291328 -2.96523e-014 9.63388 -23.0348 12.1001 -9.5629 -27.689 -122.064 -5.65194 -4.86653 -1.74294 -40.5316 -43.5896 103.283 -7.10789 -4.81548 2.69559 -7.40342 -2.98992 -6.72733 5.89092 0.508958 -5.4973 -5.3917 11.1257 1.19015 -12.1062 -9.35422 19.4153 3.33565 -41.2194 -1.46018 -9.63388 23.0348 12.1001 9.5629 27.689 122.064 -5.65194 4.86653 1.74294 40.5316 43.5896 103.283 7.10789 4.81548 -2.69559 7.40342 2.98992 6.72733 -5.89092 -0.508958 5.4973 5.3917 -11.1257 -1.19015 12.1062 9.35422 -19.4153 -3.33565 41.2194 1.46018 1.08064 -0.658118 -0.0124139 0.0240216 -1.10459 0.65824 0 1.09205 -0.658115 -0.0125449 2.41484e-006 -1.09198 0.65824 0 
-0.10135 -0.0602173 0.0563384 -6.68644e-013 9.73828e-008 -5.10873e-006 0 -0 0 0 -0 0 0 -0 0 -0.713658 0.291328 -3.88256e-019 9.63388 -23.0348 12.1001 -9.5629 -27.689 -122.064 -5.65194 -4.86653 -1.74294 -40.5316 -43.5896 103.283 -7.10789 -4.81548 2.69559 -7.40342 -2.98992 -6.72733 5.89092 0.508958 -5.4973 -5.3917 11.1257 1.19015 -12.1062 -9.35422 19.4153 3.33565 -41.2194 -1.46018 -9.63388 23.0348 12.1001 9.5629 27.689 122.064 -5.65194 4.86653 1.74294 40.5316 43.5896 103.283 7.10789 4.81548 -2.69559 7.40342 2.98992 6.72733 -5.89092 -0.508958 5.4973 5.3917 -11.1257 -1.19015 12.1062 9.35422 -19.4153 -3.33565 41.2194 1.46018 1.08063 -0.658118 -0.0124138 0.0240216 -1.10458 0.65824 0 1.09204 -0.658115 -0.0125448 2.41484e-006 -1.09197 0.65824 0 
-0.10135 -0.0602173 0.0563384 -7.78559e-014 9.73824e-008 -5.10873e-006 0 -0 0 0 -0 0 0 -0 0 -0.713658 0.291328 -0 9.63388 -23.0348 12.1001 -9.5629 -27.689 -122.064 -5.65194 -4.86653 -1.74294 -40.5316 -43.5896 103.283 -7.10789 -4.81548 2.69559 -7.40342 -2.98992 -6.72733 5.89092 0.508958 -5.4973 -5.3917 11.1257 1.19015 -12.1062 -9.35422 19.4153 3.33565 -41.2194 -1.46018 -9.63388 23.0348 12.1001 9.5629 27.689 122.064 -5.65194 4.86653 1.74294 40.5316 43.5896 103.283 7.10789 4.81548 -2.69559 7.40342 2.98992 6.72733 -5.89092 -0.508958 5.4973 5.3917 -11.1257 -1.19015 12.1062 9.35422 -19.4153 -3.33565 41.2194 1.46018 1.08063 -0.658118 -0.0124138 0.0240216 -1.10458 0.65824 0 1.09204 -0.658115 -0.0125448 2.41484e-006 -1.09197 0.65824 0 
-0.10135 -0.0602173 0.0563384 1.72911e-013 9.73823e-008 -5.10873e-006 0 -0 0 0 -0 0 0 -0 0 -0.713658 0.291328 -3.88256e-019 9.63388 -23.0348 12.1001 -9.5629 -27.689 -122.064 -5.65194 -4.86653 -1.74294 -40.5316 -43.5896 103.283 -7.10789 -4.81548 2.69559 -7.40342 -2.98992 -6.72733 5.89092 0.508958 -5.4973 -5.3917 11.1257 1.19015 -12.1062 -9.35422 19.4153 3.33565 -41.2194 -1.46018 -9.63388 23.0348 12.1001 9.5629 27.689 122.064 -5.65194 4.86653 1.74294 40.5316 43.5896 103.283 7.10789 4.81548 -2.69559 7.40342 2.98992 6.72733 -5.89092 -0.508958 5.4973 5.3917 -11.1257 -1.19015 12.1062 9.35422 -19.4153 -3.33565 41.2194 1.46018 1.08063 -0.658118 -0.0124138 0.0240216 -1.10458 0.65824 0 1.09203 -0.658115 -0.0125448 3.41509e-006 -1.09197 0.65824 0 
-0.10135 -0.0602173 0.0563384 -5.0574e-013 9.73824e-008 -5.10873e-006 0 -0 0 0 -0 0 0 -0 0 -0.713658 0.291328 -0 9.63388 -23.0348 12.1001 -9.5629 -27.689 -122.064 -5.65194 -4.86653 -1.74294 -40.5316 -43.5896 103.283 -7.10789 -4.81548 2.69559 -7.40342 -2.98992 -6.72733 5.89092 0.508958 -5.4973 -5.3917 11.1257 1.19015 -12.1062 -9.35422 19.4153 3.33565 -41.2194 -1.46018 -9.63388 23.0348 12.1001 9.5629 27.689 122.064 -5.65194 4.86653 1.74294 40.5316 43.5896 103.283 7.10789 4.81548 -2.69559 7.40342 2.98992 6.72733 -5.89092 -0.508958 5.4973 5.3917 -11.1257 -1.19015 12.1062 9.35422 -19.4153 -3.33565 41.2194 1.46018 1.08063 -0.658118 -0.0124138 0.0240216 -1.10458 0.65824 0 1.09204 -0.658115 -0.0125448 6.83019e-008 -1.09197 0.65824 0 
-0.10135 -0.0602173 0.0563384 -6.47672e-013 9.73824e-008 -5.10873e-006 0 -0 0 0 -0 0 0 -0 0 -0.713658 0.291328 -0 9.63388 -23.0348 12.1001 -9.5629 -27.689 -122.064 -5.65194 -4.86653 -1.74294 -40.5316 -43.5896 103.283 -7.10789 -4.81548 2.69559 -7.40342 -2.98992 -6.72733 5.89092 0.508958 -5.4973 -5.3917 11.1257 1.19015 -12.1062 -9.35422 19.4153 3.33565 -41.2194 -1.46018 -9.63388 23.0348 12.1001 9.5629 27.689 122.064 -5.65194 4.86653 1.74294 40.5316 43.5896 103.283 7.10789 4.81548 -2.69559 7.40342 2.98992 6.72733 -5.89092 -0.508958 5.4973 5.3917 -11.1257 -1.19015 12.1062 9.35422 -19.4153 -3.33565 41.2194 1.46018 1.08063 -0.658118 -0.0124138 0.0240216 -1.10458 0.65824 0 1.09204 -0.658115 -0.0125448 1.66913e-006 -1.09196 0.65824 0 
-0.10135 -0.0602173 0.0563384 1.24507e-013 9.73824e-008 -5.10873e-006 0 -0 0 0 -0 0 0 -0 0 -0.713658 0.291328 -0 9.63388 -23.0348 12.1001 -9.5629 -27.689 -122.064 -5.65194 -4.86653 -1.74294 -40.5316 -43.5896 103.283 -7.10789 -4.81548 2.69559 -7.40342 -2.98992 -6.72733 5.89092 0.508958 -5.4973 -5.3917 11.1257 1.19015 -12.1062 -9.35422 19.4153 3.33565 -41.2194 -1.46018 -9.63388 23.0348 12.1001 9.5629 27.689 122.064 -5.65194 4.86653 1.74294 40.5316 43.5896 103.283 7.10789 4.81548 -2.69559 7.40342 2.98992 6.72733 -5.89092 -0.508958 5.4973 5.3917 -11.1257 -1.19015 12.1062 9.35422 -19.4153 -3.33565 41.2194 1.46018 1.08063 -0.658118 -0.0124138 0.0240216 -1.10458 0.65824 0 1.09204 -0.658115 -0.0125448 1.70755e-006 -1.09197 0.65824 0 
-0.10135 -0.0602173 0.0563384 6.07752e-013 9.73823e-008 -5.10873e-006 0 -0 0 0 -0 0 0 -0 0 -0.713658 0.291328 3.88256e-019 9.63388 -23.0348 12.1001 -9.5629 -27.689 -122.064 -5.65194 -4.86653 -1.74294 -40.5316 -43.5896 103.283 -7.10789 -4.81548 2.69559 -7.40342 -2.98992 -6.72733 5.89092 0.508958 -5.4973 -5.3917 11.1257 1.19015 -12.1062 -9.35422 19.4153 3.33565 -41.2194 -1.46018 -9.63388 23.0348 12.1001 9.5629 27.689 122.064 -5.65194 4.86653 1.74294 40.5316 43.5896 103.283 7.10789 4.81548 -2.69559 7.40342 2.98992 6.72733 -5.89092 -0.508958 5.4973 5.3917 -11.1257 -1.19015 12.1062 9.35422 -19.4153 -3.33565 41.2194 1.46018 1.08063 -0.658118 -0.0124138 0.0240216 -1.10458 0.65824 0 1.09203 -0.658115 -0.0125448 2.41484e-006 -1.09197 0.65824 0 
-0.10135 -0.0602173 0.0563384 -1.55978e-013 9.73824e-008 -5.10873e-006 0 -0 0 0 -0 0 0 -0 0 -0.713658 0.291328 -7.76513e-019 9.63388 -23.0348 12.1001 -9.5629 -27.689 -122.064 -5.65194 -4.86653 -1.74294 -40.5316 -43.5896 103.283 -7.10789 -4.81548 2.69559 -7.40342 -2.98992 -6.72733 5.89092 0.508958 -5.4973 -5.3917 11.1257 1.19015 -12.1062 -9.35422 19.4153 3.33565 -41.2194 -1.46018 -9.63388 23.0348 12.1001 9.5629 27.689 122.064 -5.65194 4.86653 1.74294 40.5316 43.5896 103.283 7.10789 4.81548 -2.69559 7.40342 2.98992 6.72733 -5.89092 -0.508958 5.4973 5.3917 -11.1257 -1.19015 12.1062 9.35422 -19.4153 -3.33565 41.2194 1.46018 1.08063 -0.658118 -0.0124138 0.0240216 -1.10458 0.65824 0 1.09204 -0.658115 -0.0125448 1.75877e-006 -1.09197 0.65824 0 
-0.10135 -0.0602173 0.0563384 -4.469e-013 9.73824e-008 -5.10873e-006 0 -0 0 0 -0 0 0 -0 0 -0.713658 0.291328 -0 9.63388 -23.0348 12.1001 -9.5629 -27.689 -122.064 -5.65194 -4.86653 -1.74294 -40.5316 -43.5896 103.283 -7.10789 -4.81548 2.69559 -7.40342 -2.98992 -6.72733 5.89092 0.508958 -5.4973 -5.3917 11.1257 1.19015 -12.1062 -9.35422 19.4153 3.33565 -41.2194 -1.46018 -9.63388 23.0348 12.1001 9.5629 27.689 122.064 -5.65194 4.86653 1.74294 40.5316 43.5896 103.283 7.10789 4.81548 -2.69559 7.40342 2.98992 6.72733 -5.89092 -0.508958 5.4973 5.3917 -11.1257 -1.19015 12.1062 9.35422 -19.4153 -3.33565 41.2194 1.46018 1.08063 -0.658118 -0.0124138 0.0240216 -1.10458 0.65824 0 1.09203 -0.658115 -0.0125448 2.79511e-006 -1.09197 0.65824 0 
-0.10135 -0.0602173 0.0563384 -1.94543e-013 9.73823e-008 -5.10873e-006 0 -0 0 0 -0 0 0 -0 0 -0.713658 0.291328 -0 9.63388 -23.0348 12.1001 -9.5629 -27.689 -122.064 -5.65194 -4.86653 -1.74294 -40.5316 -43.5896 103.283 -7.10789 -4.81548 2.69559 -7.40342 -2.98992 -6.72733 5.89092 0.508958 -5.4973 -5.3917 11.1257 1.19015 -12.1062 -9.35422 19.4153 3.33565 -41.2194 -1.46018 -9.63388 23.0348 12.1001 9.5629 27.689 122.064 -5.65194 4.86653 1.74294 40.5316 43.5896 103.283 7.10789 4.81548 -2.69559 7.40342 2.98992 6.72733 -5.89092 -0.508958 5.4973 5.3917 -11.1257 -1.19015 12.1062 9.35422 -19.4153 -3.33565 41.2194 1.46018 1.08063 -0.658118 -0.0124138 0.0240216 -1.10458 0.65824 0 1.09204 -0.658115 -0.0125448 1.74689e-006 -1.09197 0.65824 0 
-0.10135 -0.0602173 0.0563384 -2.85089e-013 9.73824e-008 -5.10873e-006 0 -0 0 0 -0 0 0 -0 0 -0.713658 0.291328 -3.88256e-019 9.63388 -23.0348 12.1001 -9.5629 -27.689 -122.064 -5.65194 -4.86653 -1.74294 -40.5316 -43.5896 103.283 -7.10789 -4.81548 2.69559 -7.40342 -2.98992 -6.72733 5.89092 0.508958 -5.4973 -5.3917 11.1257 1.19015 -12.1062 -9.35422 19.4153 3.33565 -41.2194 -1.46018 -9.63388 23.0348 12.1001 9.5629 27.689 122.064 -5.65194 4.86653 1.74294 40.5316 43.5896 103.283 7.10789 4.81548 -2.69559 7.40342 2.98992 6.72733 -5.89092 -0.508958 5.4973 5.3917 -11.1257 -1.19015 12.1062 9.35422 -19.4153 -3.33565 41.2194 1.46018 1.08063 -0.658118 -0.0124138 0.0240216 -1.10458 0.65824 0 1.09204 -0.658115 -0.0125448 1.70755e-006 -1.09197 0.65824 0 
